HIERARCHY
ROOT Hips
{
    OFFSET 0.0 0.0 0.0
    CHANNELS 6 Xposition Yposition Zposition Zrotation Xrotation Yrotation
    JOINT LeftUpLeg
    {
        OFFSET 13.761875166370038 0.0 0.0
        CHANNELS 3 Zrotation Xrotation Yrotation
        JOINT LeftLeg
        {
            OFFSET 0.0 0.0 -61.494803592506
            CHANNELS 3 Zrotation Xrotation Yrotation
            JOINT LeftFoot
            {
                OFFSET 0.0 0.0 -48.96654467422661
                CHANNELS 3 Zrotation Xrotation Yrotation
                JOINT LeftToeBase
                {
                    OFFSET 0.0 -13.040006831504622 0.0
                    CHANNELS 3 Zrotation Xrotation Yrotation
                    End Site
                    {
                        OFFSET 0 0 0
                    }
                }
            }
        }
    }
    JOINT RightUpLeg
    {
        OFFSET -13.761875166370038 0.0 0.0
        CHANNELS 3 Zrotation Xrotation Yrotation
        JOINT RightLeg
        {
            OFFSET 0.0 0.0 -61.494803592506
            CHANNELS 3 Zrotation Xrotation Yrotation
            JOINT RightFoot
            {
                OFFSET 0.0 0.0 -48.96654467422661
                CHANNELS 3 Zrotation Xrotation Yrotation
                JOINT RightToeBase
                {
                    OFFSET 0.0 -13.040006831504622 0.0
                    CHANNELS 3 Zrotation Xrotation Yrotation
                    End Site
                    {
                        OFFSET 0 0 0
                    }
                }
            }
        }
    }
    JOINT Spine
    {
        OFFSET 0.0 0.0 11.77651583979584
        CHANNELS 3 Zrotation Xrotation Yrotation
        JOINT Spine1
        {
            OFFSET 0.0 0.0 11.537908495491179
            CHANNELS 3 Zrotation Xrotation Yrotation
            JOINT Spine2
            {
                OFFSET 0.0 0.0 11.537908495491179
                CHANNELS 3 Zrotation Xrotation Yrotation
                JOINT Spine3
                {
                    OFFSET 0.0 0.0 11.537908495491173
                    CHANNELS 3 Zrotation Xrotation Yrotation
                    JOINT Spine4
                    {
                        OFFSET 0.0 0.0 11.537908495491182
                        CHANNELS 3 Zrotation Xrotation Yrotation
                        JOINT RightShoulder
                        {
                            OFFSET -23.495374519696504 0.0 0.0
                            CHANNELS 3 Zrotation Xrotation Yrotation
                            JOINT RightArm
                            {
                                OFFSET -35.115647499103375 0.0 0.0
                                CHANNELS 3 Zrotation Xrotation Yrotation
                                JOINT RightForeArm
                                {
                                    OFFSET -35.03256638388187 0.0 0.0
                                    CHANNELS 3 Zrotation Xrotation Yrotation
                                    JOINT RightHand
                                    {
                                        OFFSET -11.591818811032338 0.0 0.0
                                        CHANNELS 3 Zrotation Xrotation Yrotation
                                        End Site
                                        {
                                            OFFSET 0 0 0
                                        }
                                    }
                                }
                            }
                        }
                        JOINT LeftShoulder
                        {
                            OFFSET 23.495374519696504 0.0 0.0
                            CHANNELS 3 Zrotation Xrotation Yrotation
                            JOINT LeftArm
                            {
                                OFFSET 35.115647499103375 0.0 0.0
                                CHANNELS 3 Zrotation Xrotation Yrotation
                                JOINT LeftForeArm
                                {
                                    OFFSET 35.03256638388187 0.0 0.0
                                    CHANNELS 3 Zrotation Xrotation Yrotation
                                    JOINT LeftHand
                                    {
                                        OFFSET 11.591818811032338 0.0 0.0
                                        CHANNELS 3 Zrotation Xrotation Yrotation
                                        End Site
                                        {
                                            OFFSET 0 0 0
                                        }
                                    }
                                }
                            }
                        }
                        JOINT Neck
                        {
                            OFFSET 0.0 0.0 11.537908496801439
                            CHANNELS 3 Zrotation Xrotation Yrotation
                            JOINT Head
                            {
                                OFFSET 0.0 0.0 25.242824475898804
                                CHANNELS 3 Zrotation Xrotation Yrotation
                                End Site
                                {
                                    OFFSET 0 0 0
                                }
                            }
                        }
                    }
                }
            }
        }
    }
}
MOTION
Frames: 9
Frame Time: 0.03333333333333333
42.88199286460877 3.8461996905505664 506.79219360351567 35.028469006761135 -77.74851857006905 35.814628138253106 0.636062164909689 -9.127178131303259 -13.4277867578688 15.647998025382547 -9.452737308227364 14.269687549374282 17.74087812802999 -2.3854160110976376e-15 31.97928069505293 -1.9878466759146977e-16 9.939233379573489e-17 2.584200678689107e-15 -3.765334057335696 -11.884394955859278 5.831475685157317 -11.468613788409467 -8.735888235696159 -22.575909682739653 113.26132834644604 -3.1805546814635168e-15 -70.74156949903045 0.0 0.0 0.0 -0.13138971720464707 -12.272176827180717 0.16778800913210265 0.0 0.0 0.0 0.0 0.0 0.0 0.0 0.0 0.0 0.0 0.0 0.0 141.63260038622133 17.85723438624379 -159.74548366847313 119.33309086621237 3.883997831312589e-15 5.957701004184127e-15 -3.4345954685443176e-15 -25.392367485115926 -7.737791374829801e-16 0.0 0.0 0.0 -148.3281474626533 12.586770638402951 157.3667506081596 -107.99141391763006 -2.3414515178717325e-15 7.598825915927932e-15 180.0 -68.97261018497046 180.0 -3.4483642953516866e-32 -1.5902773407317582e-15 -2.484808344893372e-15 -2.763011625631131 1.5221777140241694e-14 -4.282738941051703e-16 0.0 0.0 3.9756933518293955e-16
42.88199286460877 3.8461996905505664 506.79219360351567 35.028469006761135 -77.74851857006905 35.814628138253106 0.636062164909689 -9.127178131303259 -13.4277867578688 15.647998025382547 -9.452737308227364 14.269687549374282 17.74087812802999 -2.3854160110976376e-15 31.97928069505293 -1.9878466759146977e-16 9.939233379573489e-17 2.584200678689107e-15 -3.765334057335696 -11.884394955859278 5.831475685157317 -11.468613788409467 -8.735888235696159 -22.575909682739653 113.26132834644604 -3.1805546814635168e-15 -70.74156949903045 0.0 0.0 0.0 -0.13138971720464707 -12.272176827180717 0.16778800913210265 0.0 0.0 0.0 0.0 0.0 0.0 0.0 0.0 0.0 0.0 0.0 0.0 141.63260038622133 17.85723438624379 -159.74548366847313 119.33309086621237 3.883997831312589e-15 5.957701004184127e-15 -3.4345954685443176e-15 -25.392367485115926 -7.737791374829801e-16 0.0 0.0 0.0 -148.3281474626533 12.586770638402951 157.3667506081596 -107.99141391763006 -2.3414515178717325e-15 7.598825915927932e-15 180.0 -68.97261018497046 180.0 -3.4483642953516866e-32 -1.5902773407317582e-15 -2.484808344893372e-15 -2.763011625631131 1.5221777140241694e-14 -4.282738941051703e-16 0.0 0.0 3.9756933518293955e-16
42.88199286460877 3.8461996905505664 506.79219360351567 35.028469006761135 -77.74851857006905 35.814628138253106 0.636062164909689 -9.127178131303259 -13.4277867578688 15.647998025382547 -9.452737308227364 14.269687549374282 17.74087812802999 -2.3854160110976376e-15 31.97928069505293 -1.9878466759146977e-16 9.939233379573489e-17 2.584200678689107e-15 -3.765334057335696 -11.884394955859278 5.831475685157317 -11.468613788409467 -8.735888235696159 -22.575909682739653 113.26132834644604 -3.1805546814635168e-15 -70.74156949903045 0.0 0.0 0.0 -0.13138971720464707 -12.272176827180717 0.16778800913210265 0.0 0.0 0.0 0.0 0.0 0.0 0.0 0.0 0.0 0.0 0.0 0.0 141.63260038622133 17.85723438624379 -159.74548366847313 119.33309086621237 3.883997831312589e-15 5.957701004184127e-15 -3.4345954685443176e-15 -25.392367485115926 -7.737791374829801e-16 0.0 0.0 0.0 -148.3281474626533 12.586770638402951 157.3667506081596 -107.99141391763006 -2.3414515178717325e-15 7.598825915927932e-15 180.0 -68.97261018497046 180.0 -3.4483642953516866e-32 -1.5902773407317582e-15 -2.484808344893372e-15 -2.763011625631131 1.5221777140241694e-14 -4.282738941051703e-16 0.0 0.0 3.9756933518293955e-16
42.89575066566468 0.3153151363134385 507.50150699615483 41.96107631957683 -79.42074720165871 42.51307253265747 0.6004234041190738 -7.181876474849937 -16.632717144948664 10.971210485670285 -5.871841376978279 14.16427400835372 24.119572235323087 1.4312496066585827e-14 47.096218543914645 -2.3854160110976376e-15 0.0 0.0 -1.9230324674235453 -8.289441324224885 8.212549411988991 -13.073664638332104 -9.133855811343121 -25.139992960312394 107.73857269419744 -1.5902773407317584e-14 -79.23870285455943 6.3611093629270335e-15 -8.827812596100317e-32 -1.5902773407317584e-15 -0.09533919135242334 -10.013407065002328 0.16875264888430255 3.975693351829396e-16 0.0 0.0 3.975693351829396e-16 0.0 0.0 3.975693351829396e-16 0.0 0.0 3.975693351829396e-16 0.0 0.0 138.51494494280493 22.098759312802454 -159.27241041541134 114.77819984447571 8.57049829544986e-16 -1.339569934763312e-15 6.450026735033293e-15 -2.9689200013162056 3.348771776033887e-15 0.0 0.0 0.0 -148.36182739952127 12.087173779856911 157.19674892649564 -107.25281340741623 8.894198973580728e-15 1.3493143712980566e-15 179.99999999999997 -75.37955026805957 179.99999999999997 0.0 0.0 1.5405811738338909e-15 -2.9226834544136424 -1.2599457920180118e-14 8.716743445544334e-16 0.0 0.0 0.0
42.95141415596008 -1.2366494491696356 507.7971193313599 45.58977738697939 -80.00761899863436 46.0035779969632 0.3323892475316465 -6.288005753349692 -18.110607313708616 8.965190485448753 -4.4688236253974445 15.009447741095142 15.764890186930295 -1.3517357396219947e-14 45.28464418426701 0.0 0.0 0.0 -0.7459653141196564 -6.535813078127322 9.349146477364407 -14.327881918191046 -9.444030463104832 -26.44635632068058 105.9308709275339 -1.5902773407317584e-14 -81.61259154315927 6.361109362927033e-15 0.0 0.0 -0.09913499526233077 -9.09162981625278 0.13112235674110664 0.0 0.0 0.0 0.0 0.0 0.0 0.0 0.0 0.0 0.0 0.0 0.0 136.96546829129488 24.071542851467534 -158.9004914628977 112.6866265257976 -8.813561061886061e-16 1.323704436242824e-15 -4.268137286667207e-15 26.404040194976847 4.268137286667207e-15 0.0 0.0 3.1805546814635168e-15 -148.05713131731565 10.487947133641766 156.35407330897925 -107.60063746423296 1.6840905094419625e-14 1.4693140954274702e-15 -180.0 -77.22987628916961 180.0 1.5902773407317584e-15 -1.5902773407317584e-15 3.0376782016321477e-15 -2.9413692809986207 6.280061949826749e-15 -6.341668269173156e-16 -3.975693351829396e-16 0.0 0.0
42.99200971126557 -1.9734345093369483 507.9320789337159 47.89821718959378 -80.2748160182148 48.24120773144599 0.2290897821967783 -5.832299674007609 -18.82867306004754 7.9495405227518825 -3.825889690200357 15.693874975247233 13.729698086170991 6.3611093629270335e-15 44.659264483405025 0.0 0.0 0.0 -0.012191168961894655 -5.493988274611102 9.974439270229404 -15.128197037343629 -9.656348168186978 -27.242257580595826 104.97768658863468 -6.3611093629270335e-15 -82.19373911736892 0.0 0.0 0.0 -0.1014376565683974 -8.606126969229917 0.10806132184850543 0.0 0.0 0.0 0.0 0.0 0.0 0.0 0.0 0.0 0.0 0.0 0.0 136.72363520804902 22.511819852655208 -158.8665013332525 114.27272133588654 -1.7259009842176467e-15 2.671552708530388e-15 9.299529335924232e-15 50.46635548001849 2.6495054095845014e-15 0.0 0.0 3.1805546814635168e-15 -147.72696403644065 9.871939692817072 155.6706312669788 -107.71220486979114 -7.950748388523866e-15 -1.0075005462528581e-16 180.0 -77.97713040587018 180.0 0.0 0.0 2.435112177995505e-15 -2.934560297622802 -5.768565788629315e-15 1.0453404583730965e-15 -3.975693351829396e-16 0.0 0.0
43.0221864938736 -2.4187813684344293 508.0098129272461 49.434840867866875 -80.46051380836717 49.743417865477774 0.1662775777729864 -5.52024382261566 -19.288254433747053 7.307851494428458 -3.439496487874112 16.139942593865936 11.615631566029633 -6.3611093629270335e-15 43.76121812993324 -7.951386703658792e-16 -7.951386703658792e-16 -3.1805546814635168e-15 0.48889799662423317 -4.783163960153462 10.364701985768855 -15.638361434480949 -9.792817332023594 -27.798732863363274 104.39860483168363 -9.54166404439055e-15 -82.39190982018505 0.0 0.0 0.0 -0.0989134984197969 -8.286043192025115 0.0819480450119948 0.0 0.0 0.0 0.0 0.0 0.0 0.0 0.0 0.0 0.0 0.0 0.0 136.72731028719392 21.32363153328198 -158.96324550685705 115.58447884590875 -1.6952066577522008e-15 2.691134048926606e-15 2.36416161021511e-15 67.652607900595 -9.241502295335083e-15 0.0 0.0 0.0 -147.40563495791363 9.623633421223344 155.21359511585808 -107.77001348217419 -1.1214783969576412e-14 6.2138918436555295e-15 -180.0 -78.29708382885207 -180.0 0.0 0.0 -1.7393658414253607e-15 -2.855898155664872 -1.723892680641617e-15 3.5472037483710807e-16 0.0 0.0 0.0
43.045402550697325 -2.709218575805426 508.0611694335938 50.52301447525082 -80.59762047982974 50.813393769736145 0.11935919696903437 -5.291346776237801 -19.610167836241413 6.89089735615954 -3.1913785494305604 16.479072061020744 9.846030566915452 -1.6300342742500524e-14 42.63177876419643 -1.5902773407317582e-15 7.951386703658791e-16 1.5902773407317582e-15 0.856556206783829 -4.268681525169569 10.628705997694166 -15.994284076282614 -9.890599618888077 -28.212941632451333 104.02721718199899 -1.90833280887811e-14 -82.44035799439592 6.3611093629270335e-15 -3.1805546814635168e-15 -2.3854160110976376e-15 -0.09278077325804915 -8.057625196005285 0.05990391791157618 0.0 0.0 0.0 0.0 0.0 0.0 0.0 0.0 0.0 0.0 0.0 0.0 137.2248581453059 19.44024525283835 -159.22812962665085 117.40150035529221 1.169686034647747e-14 5.250456110084123e-15 1.2330360339554517e-14 78.47558582494288 -1.0069947027439122e-14 0.0 0.0 0.0 -147.06921174813232 9.531276722845332 154.85662327550256 -107.77908868829063 -9.340835887246551e-15 8.782517649082393e-15 -180.0 -78.19545361534531 -179.99999999999997 7.951386703658792e-16 -4.482873583957193e-33 -6.460501696722769e-16 -2.7679990913434294 6.691787002384348e-15 -2.3601145474745535e-16 0.0 0.0 0.0
43.063096332550046 -2.9045099794864657 508.0961906433106 51.3229480595023 -80.69900982424059 51.59986569872155 0.09627841750207386 -5.127703767559646 -19.839125466594265 6.60726219836442 -3.0256182181610027 16.74673910911926 8.298273651782525 -7.951386703658792e-16 41.32528990838412 -1.5902773407317584e-15 -2.2069531490250793e-32 1.5902773407317584e-15 1.1183658902844533 -3.8935290073212157 10.810565067560324 -16.25337136851896 -9.968414880560157 -28.52010884591338 103.77977640780925 1.2722218725854067e-14 -82.38725493788054 0.0 0.0 0.0 -0.08671597545325196 -7.887038547683241 0.046789281674000226 0.0 0.0 0.0 0.0 0.0 0.0 0.0 0.0 0.0 0.0 0.0 0.0 138.71615827700637 15.265619433264376 -159.72387184731733 121.38560501554272 -7.88222100816294e-15 1.0464905587708856e-15 -2.8877954667768456e-13 89.55893648419986 2.955265720052713e-13 0.0 0.0 0.0 -146.68841045684064 9.514074597876128 154.57764448489996 -107.68904359418377 -7.950768589746508e-15 -9.914304525351031e-17 179.99999999999997 -78.28437076052941 179.99999999999997 0.0 0.0 1.2921003393445538e-15 -2.7293599323095274 1.4172423133292523e-14 -1.2531036628894341e-15 0.0 -1.2424041724466865e-17 0.0
